
<svg width="23" height="24" viewBox="0 0 23 24" fill="none" xmlns="http://www.w3.org/2000/svg">
    <g clipPath="url(#clip0_0_1558)">
        <path d="M11.1507 17.0131C9.74821 15.4328 7.45615 11.9974 6.69212 10.9404C6.4138 10.5546 6.07545 10.2481 5.76438 9.96794C5.16953 9.43413 4.37822 9.02718 3.53234 8.59908C2.37539 8.00714 1.08201 7.32535 0.00146004 6.17847C-0.0258265 7.69003 0.328899 9.44471 1.10384 11.4319C3.79975 18.3449 10.1521 24.0001 11.4946 24.0001C12.073 24.0001 13.9722 22.7581 16.3461 20.1102C16.3461 20.1102 16.1442 20.2265 15.7895 20.2106C13.6611 20.1049 11.7947 17.5997 11.1507 17.0131Z" fill="#22A0C2" />
        <path d="M22.988 6.18358C22.988 6.1783 22.988 6.17301 22.988 6.17301C21.9075 7.32518 20.6141 8.00697 19.4572 8.59362C18.6167 9.02172 17.82 9.42868 17.2306 9.96248C17.2251 9.96777 17.2197 9.97305 17.2142 9.97834C17.176 10.0153 17.1433 10.0523 17.1051 10.0893C16.8322 10.3377 16.5539 10.602 16.3137 10.935C16.2755 10.9825 16.2373 11.0407 16.1937 11.0988C16.0572 11.2785 15.9317 11.4635 15.8062 11.6485C14.9549 12.8693 13.5523 14.9094 12.4336 16.31C13.0394 16.9706 15.1786 18.6989 16.2865 18.6302C16.4556 18.6196 16.6357 18.5879 16.8158 18.5456C17.5253 18.3606 18.1965 17.8691 18.6877 17.1926C19.2498 16.3998 19.7628 15.6123 20.2212 14.8248C20.2266 14.8248 20.2321 14.8248 20.2375 14.8248C20.8651 13.7414 21.4382 12.5998 21.8966 11.4212C22.6715 9.43396 23.0262 7.67929 22.9989 6.16772C22.9935 6.17301 22.988 6.1783 22.988 6.18358Z" fill="#34BEED" />
        <path d="M22.2135 0.243117C22.1862 0.158554 22.1589 0.0792777 22.1262 0C20.6855 0.29597 16.7671 0.792775 14.3659 3.12354C12.5377 4.96807 11.7901 7.56309 11.5663 10.137C11.5281 10.5439 11.4899 10.9615 11.4899 11.3684C11.4899 10.9615 11.4517 10.5439 11.4135 10.137C11.1843 7.56309 10.4421 4.96278 8.6139 3.12354C6.21268 0.792775 2.29434 0.29597 0.853606 0C0.820862 0.0792777 0.793574 0.163839 0.766287 0.243117C0.209642 1.95023 0.597111 3.96388 1.75952 5.30103C3.27119 7.03457 5.63967 7.44681 7.3096 8.95837C8.19369 9.75644 8.94133 10.7183 9.59621 11.7172C9.94002 12.2405 10.262 12.7796 10.5785 13.3239C10.775 13.6622 11.4954 14.8778 11.4954 14.8778C11.4954 14.8778 12.2157 13.6675 12.4122 13.3239C12.7287 12.7796 13.0452 12.2405 13.3945 11.7172C14.0548 10.7131 14.8025 9.75644 15.6811 8.95837C17.351 7.4521 19.7195 7.03986 21.2312 5.30103C22.3881 3.96388 22.7702 1.95023 22.2135 0.243117Z" fill="#1868AF" />
    </g>
    <defs>
        <clipPath id="clip0_0_1558">
            <rect width="23" height="24" fill="white" />
        </clipPath>
    </defs>
</svg>


